# xmcd
#
# Track frame offsets: 
#        150
#        23410
#        64305
#        89185
#        111967
#        150545
#        194322
#
# Disc length: 3012 seconds
#
# Revision: 4
# Processed by: cddbd v1.5.2PL0 Copyright (c) Steve Scherf et al.
# Submitted via: ExactAudioCopy v0.99pb4
#
DISCID=580bc207
DTITLE=Isaac Hayes - Black Moses [CD 1)
DYEAR=1971
DGENRE=Soul
TTITLE0=Never Can Say Goodbye
TTITLE1=(They Long To Be) Close To You
TTITLE2=Nothing Takes The Place Of You
TTITLE3=Man's Temptation
TTITLE4=Part-Time Love
TTITLE5=Medley: Ike's Rap IV | A Brand New Me
TTITLE6=Going In Circles
EXTD=© 1990\nTwo Disc-Set [CD 1 of 2]\nLabel: Stax Records (Fantasy, I
EXTD=nc.]\nSCD 88006-2
EXTT0=
EXTT1=
EXTT2=
EXTT3=
EXTT4=
EXTT5=
EXTT6=
PLAYORDER=
